<?xml version="1.0" encoding="UTF-8"?><svg xmlns="http://www.w3.org/2000/svg" xmlns:xlink="http://www.w3.org/1999/xlink" width="1000" height="903" viewBox="0 0 1000 903"><defs><path id="path-1--S1/Page Not Found" d="M165.992373,25.945352 C178.126919,25.9242876 187.978128,35.7597017 187.999964,47.9146047 C188.001661,48.8620258 187.943546,49.7955731 187.829188,50.7116613 L183.178733,125.994253 L134.971374,126 L141.356963,71.2192434 C95.8514268,73.3766057 55.613511,74.428915 52.1256455,74.1880452 C43.5720978,73.5984031 35.452251,67.3238295 31.6935089,56.6815367 C28.5623712,47.8173654 29.7521806,37.5026516 35.4373354,30.230399 C43.8574216,19.4588729 165.485626,25.9183906 165.992373,25.945352 Z"/><path id="path-3--S1/Page Not Found" d="M84.9703356,26.9080846 C125.795986,29.3724991 158.239234,29.3247755 158.926052,29.3234785 L158.936819,29.3230799 C169.224677,29.3056376 177.872744,36.3401219 180.285287,45.8576947 L223,125.906088 L168.866871,126 L146.358516,73.6746845 C93.5453465,76.0980983 32.009024,75.560645 28.1417427,75.2956807 C19.5823829,74.7070127 14.3242071,68.6732015 10.5634154,58.0691601 C7.43171829,49.236849 11.2867947,33.1910583 16.9750496,25.9449442 C25.4173151,15.1908725 51.9164666,24.9107362 84.9703356,26.9080846 Z"/><path id="path-7--S1/Page Not Found" d="M104.374875,34.1617016 L104.374867,34.1739961 C104.368077,39.4348353 100.248185,43.6942423 94.9873461,43.6877242 L3.77270735,43.5697588 C2.8480955,43.5685654 1.95682558,43.2242826 1.27151603,42.60359 C-0.256598756,41.2195592 -0.373401877,38.8587987 1.01062896,37.3306839 C4.50458923,33.4729864 9.78214461,31.7573101 14.8766426,32.8229927 L24.1877179,34.7707118 L45.0648791,31.874703 L55.8662199,38.9985199 C69.8045993,33.8337359 77.9019389,31.2664037 80.1582385,31.2965234 C86.8908932,31.3863985 92.5851624,32.8695277 97.2410461,35.745911 C105.597329,14.1158979 110.300681,4.57955699 111.351102,7.13688816 C114.256072,14.2092616 107.279845,21.1497519 104.374875,33.9450095 L104.374875,34.1617016 Z"/><polygon id="path-5--S1/Page Not Found" points="0.9688 0.262043258 45.003 0.262043258 45.003 54.4044309 0.9688 54.4044309"/></defs><g id="404--S1/Page Not Found" fill="none" fill-rule="evenodd" stroke="none" stroke-width="1"><g id="S1/Page-Not-Found--S1/Page Not Found"><g id="globalStyle1/notfound/bg2--S1/Page Not Found" transform="translate(0 23)"><ellipse id="shadow--S1/Page Not Found" cx="509.618" cy="799.641" fill="#000" fill-opacity=".08" rx="362.939" ry="15.209"/><path id="[color:notfound]background--S1/Page Not Found" fill="#FFF6EF" d="M192.378411,733.989362 C81.6205151,621.866821 31.5762273,539.867176 42.2455479,487.990424 C58.2495288,410.175298 70.9991365,412.245154 124.71572,340.71703 C178.432304,269.188907 74.4451503,188.927254 192.378411,92.3741559 C310.311673,-4.17894188 462.997536,143.957599 634.351866,63.5918207 C805.706196,-16.7739573 1066.97315,317.894357 948.622808,566.479578 C919.738592,627.148512 872.008848,682.985106 805.433576,733.989362 L192.378411,733.989362 Z"/></g><g id="globalStyle1/bgelements/notfound/3--S1/Page Not Found" transform="translate(18 85)"><g id="Group-2--S1/Page Not Found" fill-rule="evenodd" stroke-width="1" transform="translate(115.363 179)"><path id="Path-87-Copy-2--S1/Page Not Found" fill="#C6C5C5" fill-rule="nonzero" d="M567.136896,204.827173 L567.730608,206.740008 C560.358933,208.953851 554.560116,214.389437 550.317635,223.118632 C546.515181,230.942441 545.875521,239.152567 548.358577,247.759829 C548.358577,247.759829 548.358577,248.860588 548.358577,251.062106 C547.640544,251.067194 547.281528,251.069738 547.281528,251.069738 C543.656039,240.994033 544.054021,231.369427 548.483238,222.256009 C552.874556,213.220573 558.950907,207.433741 566.696674,204.963458 L567.136896,204.827173 Z" transform="matrix(-1 0 0 1 1112.563 0)"/><ellipse id="Oval-Copy-10--S1/Page Not Found" cx="544.832" cy="204.827" fill="#FFE03E" rx="6.1" ry="6"/><path id="Combined-Shape--S1/Page Not Found" fill="#B6B6B6" fill-rule="nonzero" d="M371.326232,121.489403 C382.963253,138.818812 388.235444,155.931497 387.122745,172.79505 C393.274042,168.669595 400.689857,166.982614 409.360202,167.757448 L410.014892,167.820389 L409.803424,169.809543 C400.722465,168.87545 393.091077,170.738607 386.896244,175.432189 C386.331492,180.77941 385.122607,186.100875 383.269131,191.396009 C371.241803,225.756475 367.556618,251.515732 371.481814,275.647576 C374.095789,291.718117 379.465432,308.62443 387.593811,326.365805 L388.152293,327.576739 L386.302764,328.407508 C377.7885,310.067065 372.177855,292.586 369.474109,275.963551 C365.489229,251.464779 369.219456,225.390682 381.346654,190.7449 C382.90265,186.299628 383.991785,181.835629 384.613646,177.352235 C377.870871,183.606383 373.047092,193.65063 370.121108,207.53492 C364.668232,233.409739 365.864414,267.136331 373.72556,308.700466 C374.135186,309.580176 374.55247,310.466572 374.976988,311.359471 L375.430562,312.310209 L374.401145,312.20811 C374.580908,313.125087 374.763848,314.0458 374.949965,314.970247 L375.507096,317.702732 L373.514521,318.100731 C373.090757,316.047966 372.682325,314.013111 372.289228,311.996164 L365.894603,311.359471 C368.130193,304.289232 369.125651,303.699566 368.194277,301.362423 C357.040524,273.373747 352.457736,255.51711 354.857303,241.640971 L354.94343,241.161294 C357.79381,225.85666 357.836997,205.72368 355.063143,180.775612 L354.933119,179.620744 L356.953699,179.397902 L357.211538,181.717025 C359.834235,205.924433 359.791639,225.615377 357.074783,240.801927 L356.943387,241.521692 C354.425642,255.040303 358.859019,274.91026 370.28107,301.07421 C363.693323,262.915232 362.972303,231.604025 368.130193,207.12896 C371.373049,191.741058 376.98947,180.806865 384.954639,174.389636 C386.508479,157.64006 381.561679,140.617574 370.094384,123.288787 L369.629691,122.591715 L371.326232,121.489403 Z"/><path id="[color:bgelement]monitor--S1/Page Not Found" fill="#CEE0F4" d="M691.087906,11 L691.087906,229.326118 L746.04336,229.326118 L746.04336,298.163059 L691.087906,298.163059 L691.087906,367 L594.049446,367 L594.049446,298.163059 L430.173271,298.163059 L430.173271,233.435786 L578.206432,11 L691.087906,11 Z M597.515105,103.981241 L519.785319,229.326118 L597.515105,229.326118 L597.515105,103.981241 Z"/><path id="shadow--S1/Page Not Found" fill="#000" fill-opacity=".2" d="M691.087906,11 L691.087906,229.326118 L746.04336,229.326118 L746.04336,298.163059 L691.087906,298.163059 L691.087906,367 L594.049446,367 L594.049446,298.163059 L430.173271,298.163059 L430.173271,233.435786 L578.206432,11 L691.087906,11 Z M597.515105,103.981241 L519.785319,229.326118 L597.515105,229.326118 L597.515105,103.981241 Z" opacity=".786"/><path id="[color:bgelement]monitor--S1/Page Not Found" fill="#CEE0F4" d="M378.068421,0 C400.512691,0 420.811552,3.93296854 438.965006,11.7989056 C457.118459,19.6648427 473.291536,31.6347469 487.484235,47.7086183 C501.676935,63.4404925 512.32146,82.8488372 519.41781,105.933653 C526.51416,129.018468 530.062335,155.779754 530.062335,186.21751 C530.062335,219.391245 526.51416,248.033516 519.41781,272.144323 C512.32146,296.25513 501.841967,315.834473 487.97933,330.882353 C474.116693,345.588235 458.356194,356.617647 440.697835,363.970588 C423.039476,371.323529 403.483256,375 382.029175,375 C356.61434,375 334.335102,370.810534 315.19146,362.431601 C296.047818,354.052668 280.204804,341.484268 267.662418,324.726402 C254.78997,307.626539 245.218149,287.5342 238.946956,264.449384 C232.675763,241.364569 229.540166,215.287278 229.540166,186.21751 L229.540166,186.21751 L229.540166,185.191518 L229.54291,183.728659 C229.656341,153.555005 233.286117,127.024841 240.432238,104.138167 C247.69362,80.8823529 258.585692,61.5595075 273.108454,46.1696306 C287.631217,30.7797538 303.639262,19.2373461 321.13259,11.5424077 C338.625918,3.84746922 357.604528,0 378.068421,0 Z M382.029175,72.8454172 L378.068421,72.8454172 L377.467686,72.8492962 C368.4865,72.9656658 360.847754,75.7003509 354.551447,81.0533516 C348.115223,86.5253078 342.916734,94.7332421 338.955981,105.677155 C334.995227,116.963064 332.024662,129.274966 330.044285,142.612859 L330.044285,142.612859 L329.842951,143.996911 C328.062731,156.491808 327.140832,170.024285 327.077252,184.594345 L327.077252,184.594345 L327.074166,185.607 L327.07589,186.712145 C327.126521,204.400323 328.063185,220.252359 329.885884,234.268251 L330.044285,235.465116 C332.024662,250.170999 335.160259,262.995896 339.451075,273.939808 C343.411828,285.225718 348.610317,293.604651 355.046542,299.076607 C361.482766,304.548564 369.156726,307.284542 378.068421,307.284542 C389.620619,307.284542 399.027408,304.634063 406.288789,299.333105 C413.550171,294.032148 418.336081,286.080711 420.646521,275.478796 C423.287023,264.876881 425.2674,252.137483 426.587651,237.260602 C427.907902,222.383721 428.568028,205.369357 428.568028,186.21751 C428.568028,169.117647 427.742871,153.642271 426.092557,139.791382 C424.442243,125.940492 421.801741,113.885089 418.17105,103.625171 C414.870422,93.3652531 410.167027,85.6703146 404.060866,80.5403557 C397.954704,75.4103967 390.610807,72.8454172 382.029175,72.8454172 L382.029175,72.8454172 Z"/><path id="shadow--S1/Page Not Found" fill="#000" fill-opacity=".08" d="M378.068421,0 C400.512691,0 420.811552,3.93296854 438.965006,11.7989056 C457.118459,19.6648427 473.291536,31.6347469 487.484235,47.7086183 C501.676935,63.4404925 512.32146,82.8488372 519.41781,105.933653 C526.51416,129.018468 530.062335,155.779754 530.062335,186.21751 C530.062335,219.391245 526.51416,248.033516 519.41781,272.144323 C512.32146,296.25513 501.841967,315.834473 487.97933,330.882353 C474.116693,345.588235 458.356194,356.617647 440.697835,363.970588 C423.039476,371.323529 403.483256,375 382.029175,375 C356.61434,375 334.335102,370.810534 315.19146,362.431601 C296.047818,354.052668 280.204804,341.484268 267.662418,324.726402 C254.78997,307.626539 245.218149,287.5342 238.946956,264.449384 C232.675763,241.364569 229.540166,215.287278 229.540166,186.21751 L229.540166,186.21751 L229.540166,185.191518 L229.54291,183.728659 C229.656341,153.555005 233.286117,127.024841 240.432238,104.138167 C247.69362,80.8823529 258.585692,61.5595075 273.108454,46.1696306 C287.631217,30.7797538 303.639262,19.2373461 321.13259,11.5424077 C338.625918,3.84746922 357.604528,0 378.068421,0 Z M382.029175,72.8454172 L378.068421,72.8454172 L377.467686,72.8492962 C368.4865,72.9656658 360.847754,75.7003509 354.551447,81.0533516 C348.115223,86.5253078 342.916734,94.7332421 338.955981,105.677155 C334.995227,116.963064 332.024662,129.274966 330.044285,142.612859 L330.044285,142.612859 L329.842951,143.996911 C328.062731,156.491808 327.140832,170.024285 327.077252,184.594345 L327.077252,184.594345 L327.074166,185.607 L327.07589,186.712145 C327.126521,204.400323 328.063185,220.252359 329.885884,234.268251 L330.044285,235.465116 C332.024662,250.170999 335.160259,262.995896 339.451075,273.939808 C343.411828,285.225718 348.610317,293.604651 355.046542,299.076607 C361.482766,304.548564 369.156726,307.284542 378.068421,307.284542 C389.620619,307.284542 399.027408,304.634063 406.288789,299.333105 C413.550171,294.032148 418.336081,286.080711 420.646521,275.478796 C423.287023,264.876881 425.2674,252.137483 426.587651,237.260602 C427.907902,222.383721 428.568028,205.369357 428.568028,186.21751 C428.568028,169.117647 427.742871,153.642271 426.092557,139.791382 C424.442243,125.940492 421.801741,113.885089 418.17105,103.625171 C414.870422,93.3652531 410.167027,85.6703146 404.060866,80.5403557 C397.954704,75.4103967 390.610807,72.8454172 382.029175,72.8454172 L382.029175,72.8454172 Z"/><path id="[color:bgelement]monitor--S1/Page Not Found" fill="#CEE0F4" d="M260.914634,11 L260.914634,229.326118 L315.870089,229.326118 L315.870089,298.163059 L260.914634,298.163059 L260.914634,367 L163.876175,367 L163.876175,298.163059 L8.21387403e-12,298.163059 L8.21387403e-12,233.435786 L147.033161,11 L260.914634,11 Z M167.341834,103.981241 L89.6120471,229.326118 L167.341834,229.326118 L167.341834,103.981241 Z"/><g id="Group--S1/Page Not Found" transform="translate(311.706 101.808)"><path id="Path-68-Copy-2--S1/Page Not Found" fill="#EDF3F7" d="M84.7193905,167.547312 C96.4368626,149.112585 131.425523,136.467831 154.717672,130.296696 C187.702289,121.557592 165.373946,67.7491217 181.364067,36.4273351 C197.354188,5.10554859 131.084971,41.3006115 122.976385,72.3211911 C114.867799,103.341771 110.014998,109.802265 67.6248877,112.638398 C49.5240847,113.849441 32.0500769,130.470111 26.3120236,180.318334 C30.9737613,183.506168 51.0367551,192.022404 67.3718274,183.36226 C74.5124285,179.576625 83.5095553,169.450707 84.7193905,167.547312 Z" transform="rotate(-23 105.078 105.764)"/><path id="Path-79-Copy-2--S1/Page Not Found" fill="#BFDEF3" fill-rule="nonzero" d="M168.002672,37.9108894 C168.254336,37.2532112 169.000364,36.9207363 169.668974,37.1682858 C170.337583,37.4158354 170.675584,38.1496675 170.42392,38.8073457 C151.67442,87.8057685 133.015295,114.735649 114.116378,119.580095 C82.5482075,127.67211 53.7338933,152.189284 43.248826,185.811416 C43.2008429,185.965282 43.1297336,186.196509 43.0354981,186.505098 L40.4987013,185.968185 C40.571505,185.727514 40.6263636,185.547137 40.6632769,185.427055 C51.2197813,151.085934 80.341166,125.978459 112.447705,117.383823 L113.463985,117.117548 C131.249554,112.558491 149.539172,86.1619022 168.002672,37.9108894 Z" opacity=".32" transform="rotate(-23 105.503 111.796)"/></g><g id="Group-Copy--S1/Page Not Found" transform="scale(-1 1) rotate(2 -1526.059 -6128.308)"><path id="Path-68-Copy-2--S1/Page Not Found" fill="#EDF3F7" d="M69.2214999,147.55123 C79.5571946,131.29041 110.419834,120.136782 130.965267,114.693375 C160.060188,106.984826 140.364905,59.5216942 154.469399,31.8935146 C168.573892,4.26533495 110.119441,36.1921121 102.967056,63.5546046 C95.8146714,90.917097 91.5341349,96.6157406 54.1428583,99.1174234 C50.8725867,99.3362226 47.5268416,100.310434 44.4396671,101.846787 C44.4396671,101.846787 35.5466738,125.1205 23.2351857,157.063788 C23.7936314,158.071552 39.5108735,169.140108 53.9196401,161.501208 C60.2181891,158.161992 68.154334,149.230168 69.2214999,147.55123 Z" transform="rotate(-23 89.946 92.725)"/><path id="Path-79-Copy-2--S1/Page Not Found" fill="#BFDEF3" fill-rule="nonzero" d="M143.546276,34.3561812 C143.768263,33.7760594 144.426317,33.4827914 145.01608,33.7011488 C145.605844,33.9195062 145.903986,34.5668015 145.682,35.1469233 C129.143526,78.3672302 112.68477,102.121417 96.0144984,106.394585 C66.8681625,113.865799 40.3831929,137.210523 32.3150501,169.023924 C32.1625239,169.625349 31.5432226,169.991274 30.9318021,169.841241 C30.3203816,169.691209 29.9483743,169.082032 30.1009005,168.480608 C38.3022326,136.14203 64.9886631,112.368635 94.5426026,104.457306 L95.4390382,104.222432 C111.127253,100.201 127.260076,76.917216 143.546276,34.3561812 Z" opacity=".32" transform="rotate(-23 87.911 101.752)"/></g><path id="Path-85--S1/Page Not Found" fill="#B6B6B6" fill-rule="nonzero" d="M121.715606,216.001625 C133.100661,216.001625 148.161405,220.016872 166.931229,228.031565 L167.405785,228.260792 L167.341834,229.326118 L165.051916,229.756923 C146.917618,222.086378 132.600155,218.001625 121.715606,218.001625 C110.76084,218.001625 98.5296727,223.562542 85.0398551,234.738242 L84.4349923,235.242399 L83.115939,233.720386 C97.1804676,221.92665 110.040837,216.001625 121.715606,216.001625 Z"/><path id="Combined-Shape-Copy-2--S1/Page Not Found" fill="#FFE978" d="M135.79072,230.328435 C144.716628,226.787254 155.295651,226.453149 167.527788,229.326118 C166.256783,229.914291 165.317763,230.319196 164.710726,230.540834 C150.365693,235.778402 140.669527,239.698534 135.563104,242.709005 C130.132549,245.910566 118.977664,247.452653 102.098447,247.335265 C115.634054,239.538559 126.864812,233.869616 135.79072,230.328435 Z M88.6071523,96.0307159 C95.8487752,111.028771 99.1421995,121.624963 98.4874252,127.81929 C97.8585997,133.768136 98.2183321,144.496743 99.5666224,160.005111 C107.014824,167.42537 113.171856,174.126264 118.040349,180.112616 C114.222683,173.517667 112.139734,166.975438 111.789968,160.48554 C111.280458,151.031608 111.757335,138.623692 113.220599,123.261793 C120.462222,138.259849 123.755647,148.85604 123.100872,155.050368 C122.462588,161.088699 122.842825,172.051671 124.241585,187.939283 C128.840742,193.482931 133.98829,198.788696 139.175759,203.424062 C134.305007,195.917602 131.67146,188.478241 131.274162,181.106401 C130.764652,171.652469 131.241529,159.244553 132.704794,143.882654 C139.946417,158.88071 143.239841,169.476901 142.585067,175.671229 C141.964982,181.537386 142.306164,192.051352 143.608614,207.213125 C152.501581,214.470591 161.08306,219.377514 166.764143,219.729054 L167.350653,219.749134 L167.341834,223.040895 C166.663888,223.037238 165.95221,222.976202 165.210106,222.86075 L165.259325,222.897319 C148.4016,221.721997 136.83029,221.510376 130.545396,222.262453 C124.260502,223.01453 113.432359,219.960372 98.0609668,213.099978 C113.650272,211.392753 126.254169,210.707195 135.872659,211.043306 C138.851318,211.147392 141.846958,211.598187 144.859579,212.395689 C141.214629,209.648222 137.495217,206.48168 133.85576,203.034982 C119.354535,199.008108 109.166364,196.739035 103.290364,196.226863 C96.983845,195.677166 87.0378721,190.475256 73.4524448,180.621135 C89.0619377,182.139426 101.535314,184.046506 110.872574,186.342373 C114.989137,187.354564 118.990837,189.061131 122.877676,191.462075 C121.558498,189.912233 120.277365,188.340189 119.044572,186.755343 L118.243935,185.715331 C116.391766,183.284026 114.295852,180.715428 111.956312,178.009772 C97.4135164,173.969659 87.1999815,171.693542 81.3137083,171.180475 C75.0071897,170.630777 65.0612167,165.428868 51.4757895,155.574747 C67.0852824,157.093038 79.5586589,159.000117 88.8959189,161.295985 C93.3424022,162.389297 97.6548742,164.292747 101.833335,167.006335 C96.092059,161.082177 89.4336659,154.642054 81.8597746,147.688935 C69.6517425,141.730242 59.0188647,135.845932 49.9603671,130.035827 C39.3501537,123.230453 29.304845,115.50382 19.8244411,106.855927 C42.9383085,110.954026 59.3118963,118.282408 68.9452044,128.841072 C74.2047692,134.605859 78.5130023,139.400888 81.8699037,143.226157 L81.7712642,143.135509 C86.5671883,147.497048 91.0181549,151.666351 95.1243618,155.643813 C90.2238473,148.112161 87.5750601,140.649339 87.1765207,133.254463 C86.6670106,123.80053 87.1438878,111.392615 88.6071523,96.0307159 Z"/><path id="Combined-Shape-Copy-3--S1/Page Not Found" fill="#FFE978" d="M497.245956,317.323487 C505.372201,314.099558 514.917972,313.563983 525.790427,315.69745 C525.790427,315.69745 525.798299,316.047298 525.799684,316.455633 L525.799621,316.705323 C525.797796,317.135175 525.776045,317.560971 525.776045,317.560971 C511.681541,322.674398 502.068958,326.726487 497.018341,329.704057 C491.587786,332.905619 480.4329,334.447705 463.553684,334.330317 C477.089291,326.533612 488.320048,320.864668 497.245956,317.323487 Z M443.169558,174.295053 C450.411181,189.293108 453.704605,199.889299 453.049831,206.083627 C452.421033,212.032217 452.780707,222.760157 454.128854,238.267448 C461.574433,245.684783 467.730405,252.384241 472.598504,258.369526 C468.783614,251.777372 466.702016,245.237477 466.352374,238.749877 C465.842864,229.295944 466.319741,216.888029 467.783005,201.52613 C475.024628,216.524185 478.318052,227.120377 477.663278,233.314705 C477.024913,239.353795 477.405327,250.318764 478.804519,266.209612 C483.484976,271.87554 488.702009,277.292379 493.939371,281.998915 C488.940368,274.386841 486.239337,266.844092 485.836568,259.370738 C485.327058,249.916805 485.803935,237.50889 487.2672,222.146991 C494.508823,237.145046 497.802247,247.741238 497.147473,253.935566 C496.524987,259.824436 496.871226,270.397174 498.186191,285.653781 C506.886091,292.814914 515.253239,297.645343 520.887878,297.994009 C521.250409,298.791123 521.511341,299.377769 521.670674,299.753948 C521.832864,300.136874 522.054115,300.688915 522.334425,301.410073 C521.566564,301.405925 520.753578,301.327708 519.900513,301.179788 L519.999701,301.254005 C503.141976,300.078684 491.570666,299.867062 485.285772,300.619139 C479.000878,301.371216 468.172735,298.317058 452.801343,291.456664 C468.390648,289.749439 480.994546,289.063882 490.613035,289.399992 C493.641359,289.505814 496.687234,289.970002 499.750661,290.792555 C496.029049,288.017812 492.229367,284.814102 488.518568,281.326892 C473.964198,277.282974 463.742391,275.004559 457.852769,274.4912 C451.546251,273.941502 441.600278,268.739593 428.014851,258.885472 C443.624343,260.403763 456.09772,262.310843 465.43498,264.60671 C469.558219,265.620542 473.566223,267.331005 477.458992,269.738099 C476.130052,268.182664 474.843064,266.606524 473.607617,265.018267 L472.80698,263.978254 C470.955039,261.54725 468.859414,258.978986 466.520223,256.273697 C451.97686,252.234204 441.762658,249.957902 435.876114,249.444811 C429.569595,248.895114 419.623622,243.693205 406.038195,233.839083 C421.647688,235.357375 434.121065,237.264454 443.458325,239.560322 C447.906309,240.654002 452.220191,242.558368 456.399971,245.27342 C450.65995,239.349886 444.002132,232.910128 436.428843,225.957388 C424.218159,219.996799 413.582979,214.111364 404.522773,208.300163 C393.912559,201.49479 384.048069,195.457 374.929302,190.186792 C397.681533,190.907206 413.874302,196.546744 423.50761,207.105408 C428.760312,212.862673 433.064163,217.652709 436.419163,221.475514 L436.33431,221.398433 C441.129063,225.758907 445.579027,229.927239 449.684399,233.903824 C444.785316,226.373857 442.137395,218.912368 441.738926,211.518799 C441.229416,202.064867 441.706294,189.656951 443.169558,174.295053 Z" transform="rotate(108 450.364 254.316)"/><path id="Combined-Shape-Copy-4--S1/Page Not Found" fill="#FFE978" d="M564.845221,71.9424102 C572.086844,86.9404655 575.380268,97.536657 574.725494,103.730985 C574.096709,109.679447 574.456354,120.407054 575.80443,135.913805 C583.249205,143.330981 589.404635,150.029771 594.272477,156.014547 C590.458645,149.422745 588.377626,142.88385 588.028036,136.397234 C587.518526,126.943302 587.995403,114.535387 589.458668,99.1734877 C596.700291,114.171543 599.993715,124.767735 599.338941,130.962062 C598.700442,137.002417 599.081149,147.970716 600.481061,163.866958 C605.246005,169.6578 610.598433,175.279677 615.973567,180.186412 C610.74495,172.390666 607.924516,164.668024 607.512231,157.018095 C607.002721,147.564163 607.479598,135.156248 608.942862,119.794349 C616.184485,134.792404 619.47791,145.388596 618.823135,151.582923 C618.196188,157.513997 618.551902,168.196316 619.890275,183.62988 C628.760793,191.132168 637.316127,196.303794 642.98651,196.654671 C642.973585,196.787717 643.046788,197.042329 643.206121,197.418508 C643.368312,197.801434 643.589665,198.353444 643.870182,199.074538 C643.164764,199.070733 642.421774,199.004356 641.645062,198.878798 L641.675364,198.901362 C624.817638,197.726041 613.246329,197.514419 606.961435,198.266497 C600.676541,199.018574 589.848398,195.964416 574.477006,189.104021 C590.066311,187.396797 602.670208,186.711239 612.288698,187.047349 C615.274235,187.151676 618.276831,187.604314 621.296486,188.405262 C617.601801,185.634439 613.830896,182.438242 610.146053,178.961108 C595.617313,174.925307 585.411556,172.65135 579.528432,172.138557 C573.221913,171.58886 563.27594,166.386951 549.690513,156.532829 C565.300006,158.051121 577.773383,159.9582 587.110643,162.254068 C591.231765,163.267379 595.237771,164.976606 599.12866,167.38175 C597.802836,165.827551 596.517782,164.252411 595.283221,162.665293 L594.482584,161.62528 C592.630872,159.194575 590.535535,156.626645 588.196693,153.921725 C573.652992,149.881667 563.438455,147.605272 557.551777,147.092169 C551.245258,146.542472 541.299285,141.340562 527.713858,131.486441 C543.323351,133.004732 555.796727,134.911812 565.133987,137.207679 C569.58268,138.301534 573.897227,140.206333 578.077631,142.922074 C572.336724,136.998044 565.678401,130.557765 558.104447,123.604414 C545.893822,117.644156 535.258642,111.758722 526.198436,105.947521 C515.588222,99.1421477 505.723732,93.1043573 496.604965,87.8341497 C519.357195,88.5545632 535.549965,94.1941019 545.183273,104.752766 C550.437805,110.512037 554.742824,115.303404 558.098333,119.126867 L558.009913,119.045458 C562.804276,123.405578 567.253906,127.573586 571.359001,131.549879 C566.46051,124.019895 563.813023,116.559072 563.414589,109.166157 C562.905079,99.7122246 563.381956,87.304309 564.845221,71.9424102 Z" transform="rotate(33 570.238 135.508)"/><path id="Path-78--S1/Page Not Found" fill="#B6B6B6" fill-rule="nonzero" d="M312.989731,165.263219 C330.634034,190.549026 339.568244,213.213403 339.756337,233.269656 L339.759371,233.915727 C339.759371,252.221784 348.400227,274.200113 365.715098,299.82325 C365.715098,299.82325 365.894603,303.699566 365.894603,303.699566 C344.871412,273.82692 337.923658,253.880015 337.729191,234.523797 L337.72613,233.915727 C337.72613,214.368954 329.120347,192.125951 311.872756,167.200022 L311.313384,166.395029 L312.989731,165.263219 Z"/><ellipse id="Oval--S1/Page Not Found" cx="311.313" cy="163" fill="#FFE03E" rx="6.1" ry="6"/><ellipse id="Oval-Copy-2--S1/Page Not Found" cx="355.784" cy="178.5" fill="#FFE03E" rx="6.1" ry="6"/><ellipse id="Oval-Copy-3--S1/Page Not Found" cx="410.844" cy="169" fill="#FFE03E" rx="6.1" ry="6"/><ellipse id="Oval-Copy-4--S1/Page Not Found" cx="371.994" cy="121.489" fill="#FFE03E" rx="6.1" ry="6"/><path id="Path-81--S1/Page Not Found" fill="#B6B6B6" fill-rule="nonzero" d="M298.391441,245.479061 C301.578171,247.352837 304.606671,247.445808 311.933054,246.417242 L314.796589,246.008571 C315.404435,245.925251 315.90393,245.861729 316.444607,245.798636 C320.926678,245.275615 324.2559,245.37783 327.39116,246.391493 C334.05329,248.545429 344.687358,266.124536 359.828109,299.586586 L361.551872,303.470463 C360.823177,303.073018 360.277603,302.767826 359.915151,302.554886 C359.586933,302.362058 359.0965,302.058598 358.443854,301.644506 C343.385746,268.248662 332.64867,250.196564 326.756281,248.291493 C324.075145,247.424654 321.152516,247.302233 317.204915,247.726312 L316.684133,247.78471 C315.893449,247.876976 315.188132,247.97087 314.071783,248.130819 L312.193118,248.40104 C304.558617,249.472251 301.212115,249.392168 297.571515,247.3248 L297.348215,247.195736 L298.391441,245.479061 Z"/><ellipse id="Oval-Copy--S1/Page Not Found" cx="299.114" cy="247.341" fill="#FFE03E" rx="6.1" ry="6"/><path id="Path-86--S1/Page Not Found" fill="#B6B6B6" fill-rule="nonzero" d="M144.904588,108.988012 C154.197488,122.280824 157.572765,140.807047 155.077077,164.541079 L154.987637,165.371123 C153.161452,181.921403 157.089718,198.487946 166.794859,215.082958 C166.947423,215.343831 167.129748,215.679224 167.341834,216.089139 L167.341834,219.963288 C167.025399,219.395004 166.776001,218.963867 166.59364,218.669876 C155.696258,201.101828 151.119916,183.501228 152.889707,165.881737 L152.966267,165.155315 C155.550498,141.73505 152.394184,123.550804 143.543965,110.576988 L143.22924,110.121252 L144.904588,108.988012 Z"/><path id="Path-86-Copy--S1/Page Not Found" fill="#B6B6B6" fill-rule="nonzero" d="M158.723827,88.4779871 C168.016727,101.770799 171.392004,120.297022 168.896316,144.031054 L168.806876,144.861098 C166.314594,167.448049 174.62852,190.092104 193.628975,212.770663 C193.628975,212.770663 193.881827,213.329294 194.387532,214.446556 L193.327884,215.44456 C172.305493,191.577307 164.301118,169.3433 166.708946,145.371712 L166.785506,144.64529 C169.369737,121.225025 166.213423,103.040779 157.363204,90.0669629 L157.048479,89.6112269 L158.723827,88.4779871 Z" transform="rotate(24 175.718 151.961)"/><ellipse id="Oval-Copy-5--S1/Page Not Found" cx="143.229" cy="108.988" fill="#FFE03E" rx="6.1" ry="6"/><ellipse id="Oval-Copy-6--S1/Page Not Found" cx="186.689" cy="86.497" fill="#FFE03E" rx="6.1" ry="6"/><ellipse id="Oval-Copy-7--S1/Page Not Found" cx="83.116" cy="235.242" fill="#FFE03E" rx="6.1" ry="6"/><path id="Path-87--S1/Page Not Found" fill="#C6C5C5" fill-rule="nonzero" d="M616.293424,183.091185 L616.887136,185.00402 C609.515461,187.217863 603.716644,192.653449 599.474163,201.382645 C595.671709,209.206454 595.032049,217.41658 597.515105,226.023841 C597.515105,226.023841 597.515105,227.1246 597.515105,229.326118 C596.797072,229.331207 596.438056,229.333751 596.438056,229.333751 C592.812567,219.258046 593.210549,209.63344 597.639767,200.520022 C602.031084,191.484586 608.107436,185.697753 615.853202,183.22747 L616.293424,183.091185 Z"/><path id="Path-87-Copy--S1/Page Not Found" fill="#C6C5C5" fill-rule="nonzero" d="M581.892605,145.837097 L574.950872,123.490825 C573.54591,119.000649 572.398844,115.411844 571.342435,112.220212 L570.601018,110.001217 L570.059721,108.410742 C566.676512,98.558744 564.146984,92.9061677 562.387885,91.468205 L562.296011,91.3964145 L563.5234,89.8019322 C565.762225,91.4694284 568.359453,97.2007246 571.971762,107.72806 L572.825674,110.248753 C574.011947,113.792256 575.28421,117.75724 576.893239,122.899577 L583.835115,145.246311 L585.435579,150.29918 C588.984351,161.409797 591.899439,169.865338 594.740672,177.087452 L595.477566,178.935266 C598.812636,187.181795 601.849622,193.084505 604.634661,196.527017 C614.315963,208.493816 625.986463,215.4258 639.683305,217.363269 C639.758406,217.373441 639.814731,217.38107 639.852282,217.386156 C639.92294,217.3957 639.958269,217.925913 639.958269,218.976796 C639.588701,219.221848 639.403841,219.344374 639.403689,219.344374 C625.173486,217.333979 613.0411,210.129899 603.043702,197.772383 C599.964391,193.966129 596.692278,187.504835 593.095897,178.445505 L592.425445,176.736663 C589.278248,168.624439 586.016604,158.95708 581.892605,145.837097 Z" transform="rotate(34 601.127 154.573)"/><ellipse id="Oval-Copy-8--S1/Page Not Found" cx="607.227" cy="78.273" fill="#FFE03E" rx="6.1" ry="6"/><ellipse id="Oval-Copy-9--S1/Page Not Found" cx="619.426" cy="184.5" fill="#FFE03E" rx="6.1" ry="6"/></g><path id="whoops…--S1/Page Not Found" fill="#B4B3B3" fill-rule="nonzero" d="M650.304793,171 L654.252793,156.762 L657.906793,171 L666.852793,171 L673.782793,149.832 L666.516793,149.832 L662.526793,164.7 L659.250793,149.832 L650.640793,149.832 L646.314793,164.406 L643.038793,149.832 L634.764793,149.832 L641.358793,171 L650.304793,171 Z M684.943339,171 L684.943339,158.526 C684.943339,157.966 684.999339,157.434 685.111339,156.93 C685.223339,156.426 685.377339,155.95 685.573339,155.502 C685.797339,155.082 686.098339,154.76 686.476339,154.536 C686.854339,154.312 687.337339,154.2 687.925339,154.2 C688.485339,154.2 688.975339,154.284 689.395339,154.452 C689.815339,154.62 690.151339,154.858 690.403339,155.166 C690.655339,155.502 690.851339,155.887 690.991339,156.321 C691.131339,156.755 691.201339,157.238 691.201339,157.77 L691.201339,157.77 L691.201339,171 L699.475339,171 L699.475339,157.182 C699.475339,155.782 699.300339,154.557 698.950339,153.507 C698.600339,152.457 698.075339,151.596 697.375339,150.924 C696.675339,150.252 695.835339,149.748 694.855339,149.412 C693.875339,149.076 692.769339,148.908 691.537339,148.908 C690.865339,148.908 690.214339,148.971 689.584339,149.097 C688.954339,149.223 688.331339,149.412 687.715339,149.664 C687.099339,149.916 686.560339,150.224 686.098339,150.588 C685.636339,150.952 685.251339,151.358 684.943339,151.806 L684.943339,151.806 L684.943339,140.592 L676.669339,140.592 L676.669339,171 L684.943339,171 Z M715.927884,171.672 C716.207884,171.672 716.494884,171.665 716.788884,171.651 C717.082884,171.637 717.369884,171.602 717.649884,171.546 C717.957884,171.518 718.265884,171.476 718.573884,171.42 L718.573884,171.42 L719.497884,171.252 C720.617884,171.056 721.688884,170.671 722.710884,170.097 C723.732884,169.523 724.719884,168.802 725.671884,167.934 C726.595884,167.038 727.295884,165.918 727.771884,164.574 C728.247884,163.23 728.485884,161.648 728.485884,159.828 C728.485884,158.008 728.184884,156.433 727.582884,155.103 C726.980884,153.773 726.091884,152.674 724.915884,151.806 C723.739884,150.966 722.402884,150.329 720.904884,149.895 C719.406884,149.461 717.747884,149.244 715.927884,149.244 C713.603884,149.244 711.650884,149.524 710.068884,150.084 C708.486884,150.644 707.275884,151.484 706.435884,152.604 C705.595884,153.724 704.944884,154.907 704.482884,156.153 C704.020884,157.399 703.747884,158.708 703.663884,160.08 L703.663884,160.08 L703.663884,160.164 C703.663884,161.9 703.950884,163.468 704.524884,164.868 C705.098884,166.268 705.945884,167.5 707.065884,168.564 C708.213884,169.6 709.522884,170.377 710.992884,170.895 C712.462884,171.413 714.107884,171.672 715.927884,171.672 Z M715.927884,166.8 C715.339884,166.8 714.814884,166.66 714.352884,166.38 C713.890884,166.1 713.463884,165.666 713.071884,165.078 C712.707884,164.49 712.427884,163.762 712.231884,162.894 C712.035884,162.026 711.937884,161.004 711.937884,159.828 C711.937884,158.932 712.021884,158.12 712.189884,157.392 C712.357884,156.664 712.609884,156.034 712.945884,155.502 C713.281884,154.97 713.694884,154.571 714.184884,154.305 C714.674884,154.039 715.255884,153.906 715.927884,153.906 C716.683884,153.906 717.313884,154.053 717.817884,154.347 C718.321884,154.641 718.713884,155.068 718.993884,155.628 C719.245884,156.216 719.448884,156.825 719.602884,157.455 C719.756884,158.085 719.847884,158.736 719.875884,159.408 L719.875884,159.408 L719.875884,160.668 C719.847884,160.78 719.833884,160.878 719.833884,160.962 L719.833884,160.962 L719.833884,161.214 C719.805884,161.41 719.784884,161.599 719.770884,161.781 C719.756884,161.963 719.735884,162.152 719.707884,162.348 C719.623884,162.908 719.490884,163.44 719.308884,163.944 C719.126884,164.448 718.895884,164.938 718.615884,165.414 C718.335884,165.862 717.971884,166.205 717.523884,166.443 C717.075884,166.681 716.543884,166.8 715.927884,166.8 Z M743.93043,171.672 C744.21043,171.672 744.49743,171.665 744.79143,171.651 C745.08543,171.637 745.37243,171.602 745.65243,171.546 C745.96043,171.518 746.26843,171.476 746.57643,171.42 L746.57643,171.42 L747.50043,171.252 C748.62043,171.056 749.69143,170.671 750.71343,170.097 C751.73543,169.523 752.72243,168.802 753.67443,167.934 C754.59843,167.038 755.29843,165.918 755.77443,164.574 C756.25043,163.23 756.48843,161.648 756.48843,159.828 C756.48843,158.008 756.18743,156.433 755.58543,155.103 C754.98343,153.773 754.09443,152.674 752.91843,151.806 C751.74243,150.966 750.40543,150.329 748.90743,149.895 C747.40943,149.461 745.75043,149.244 743.93043,149.244 C741.60643,149.244 739.65343,149.524 738.07143,150.084 C736.48943,150.644 735.27843,151.484 734.43843,152.604 C733.59843,153.724 732.94743,154.907 732.48543,156.153 C732.02343,157.399 731.75043,158.708 731.66643,160.08 L731.66643,160.08 L731.66643,160.164 C731.66643,161.9 731.95343,163.468 732.52743,164.868 C733.10143,166.268 733.94843,167.5 735.06843,168.564 C736.21643,169.6 737.52543,170.377 738.99543,170.895 C740.46543,171.413 742.11043,171.672 743.93043,171.672 Z M743.93043,166.8 C743.34243,166.8 742.81743,166.66 742.35543,166.38 C741.89343,166.1 741.46643,165.666 741.07443,165.078 C740.71043,164.49 740.43043,163.762 740.23443,162.894 C740.03843,162.026 739.94043,161.004 739.94043,159.828 C739.94043,158.932 740.02443,158.12 740.19243,157.392 C740.36043,156.664 740.61243,156.034 740.94843,155.502 C741.28443,154.97 741.69743,154.571 742.18743,154.305 C742.67743,154.039 743.25843,153.906 743.93043,153.906 C744.68643,153.906 745.31643,154.053 745.82043,154.347 C746.32443,154.641 746.71643,155.068 746.99643,155.628 C747.24843,156.216 747.45143,156.825 747.60543,157.455 C747.75943,158.085 747.85043,158.736 747.87843,159.408 L747.87843,159.408 L747.87843,160.668 C747.85043,160.78 747.83643,160.878 747.83643,160.962 L747.83643,160.962 L747.83643,161.214 C747.80843,161.41 747.78743,161.599 747.77343,161.781 C747.75943,161.963 747.73843,162.152 747.71043,162.348 C747.62643,162.908 747.49343,163.44 747.31143,163.944 C747.12943,164.448 746.89843,164.938 746.61843,165.414 C746.33843,165.862 745.97443,166.205 745.52643,166.443 C745.07843,166.681 744.54643,166.8 743.93043,166.8 Z M768.278975,179.274 L768.278975,169.11 C768.614975,169.53 768.985975,169.901 769.391975,170.223 C769.797975,170.545 770.238975,170.804 770.714975,171 C771.190975,171.224 771.778975,171.392 772.478975,171.504 C773.178975,171.616 773.990975,171.672 774.914975,171.672 C776.566975,171.672 777.987975,171.392 779.177975,170.832 C780.367975,170.272 781.312975,169.432 782.012975,168.312 C782.740975,167.164 783.279975,165.911 783.629975,164.553 C783.979975,163.195 784.154975,161.732 784.154975,160.164 C784.154975,159.94 784.147975,159.702 784.133975,159.45 C784.119975,159.198 784.098975,158.946 784.070975,158.694 C784.042975,158.442 784.000975,158.183 783.944975,157.917 C783.888975,157.651 783.832975,157.378 783.776975,157.098 C783.552975,156.118 783.209975,155.18 782.747975,154.284 C782.285975,153.388 781.690975,152.534 780.962975,151.722 C780.262975,150.91 779.408975,150.294 778.400975,149.874 C777.392975,149.454 776.230975,149.244 774.914975,149.244 C774.158975,149.244 773.465975,149.314 772.835975,149.454 C772.205975,149.594 771.624975,149.804 771.092975,150.084 C770.560975,150.364 770.056975,150.735 769.580975,151.197 C769.104975,151.659 768.670975,152.198 768.278975,152.814 L768.278975,152.814 L768.278975,149.832 L760.004975,149.832 L760.004975,179.274 L768.278975,179.274 Z M771.932975,167.136 C771.316975,167.136 770.791975,167.003 770.357975,166.737 C769.923975,166.471 769.580975,166.072 769.328975,165.54 C769.076975,165.008 768.866975,164.448 768.698975,163.86 C768.530975,163.272 768.418975,162.67 768.362975,162.054 C768.362975,161.97 768.355975,161.886 768.341975,161.802 C768.327975,161.718 768.320975,161.634 768.320975,161.55 C768.292975,161.494 768.278975,161.424 768.278975,161.34 L768.278975,161.34 L768.278975,160.164 C768.278975,159.184 768.362975,158.323 768.530975,157.581 C768.698975,156.839 768.964975,156.216 769.328975,155.712 C769.692975,155.208 770.091975,154.83 770.525975,154.578 C770.959975,154.326 771.428975,154.2 771.932975,154.2 C772.408975,154.2 772.856975,154.291 773.276975,154.473 C773.696975,154.655 774.088975,154.942 774.452975,155.334 C774.816975,155.698 775.089975,156.279 775.271975,157.077 C775.453975,157.875 775.544975,158.876 775.544975,160.08 L775.544975,160.08 L775.544975,160.164 C775.544975,161.256 775.474975,162.222 775.334975,163.062 C775.194975,163.902 774.984975,164.644 774.704975,165.288 C774.424975,165.904 774.053975,166.366 773.591975,166.674 C773.129975,166.982 772.576975,167.136 771.932975,167.136 Z M797.289521,171.672 C799.025521,171.672 800.565521,171.546 801.909521,171.294 C803.253521,171.042 804.401521,170.65 805.353521,170.118 C806.305521,169.586 807.019521,168.879 807.495521,167.997 C807.971521,167.115 808.209521,166.044 808.209521,164.784 C808.209521,163.552 807.999521,162.523 807.579521,161.697 C807.159521,160.871 806.529521,160.234 805.689521,159.786 C804.849521,159.366 803.946521,158.974 802.980521,158.61 C802.014521,158.246 800.957521,157.924 799.809521,157.644 C799.725521,157.616 799.641521,157.595 799.557521,157.581 C799.473521,157.567 799.403521,157.546 799.347521,157.518 C799.263521,157.518 799.179521,157.511 799.095521,157.497 C799.011521,157.483 798.927521,157.462 798.843521,157.434 C798.675521,157.378 798.514521,157.329 798.360521,157.287 C798.206521,157.245 798.059521,157.21 797.919521,157.182 C797.527521,157.098 797.184521,156.993 796.890521,156.867 C796.596521,156.741 796.351521,156.622 796.155521,156.51 C795.959521,156.37 795.812521,156.23 795.714521,156.09 C795.616521,155.95 795.553521,155.796 795.525521,155.628 L795.525521,155.628 L795.525521,155.376 C795.525521,155.18 795.581521,154.998 795.693521,154.83 C795.805521,154.662 795.959521,154.508 796.155521,154.368 C796.379521,154.228 796.610521,154.116 796.848521,154.032 C797.086521,153.948 797.345521,153.906 797.625521,153.906 C797.933521,153.906 798.227521,153.962 798.507521,154.074 C798.787521,154.186 799.039521,154.354 799.263521,154.578 C799.487521,154.774 799.655521,155.012 799.767521,155.292 C799.879521,155.572 799.935521,155.852 799.935521,156.132 L799.935521,156.132 L807.537521,156.216 C807.537521,156.02 807.530521,155.817 807.516521,155.607 C807.502521,155.397 807.481521,155.166 807.453521,154.914 C807.425521,154.662 807.376521,154.41 807.306521,154.158 C807.236521,153.906 807.145521,153.64 807.033521,153.36 C806.809521,152.856 806.466521,152.366 806.004521,151.89 C805.542521,151.414 804.975521,150.966 804.303521,150.546 C803.603521,150.126 802.700521,149.804 801.594521,149.58 C800.488521,149.356 799.165521,149.244 797.625521,149.244 C796.085521,149.244 794.734521,149.377 793.572521,149.643 C792.410521,149.909 791.451521,150.322 790.695521,150.882 C789.939521,151.414 789.323521,151.981 788.847521,152.583 C788.371521,153.185 788.049521,153.808 787.881521,154.452 C787.853521,154.564 787.818521,154.683 787.776521,154.809 C787.734521,154.935 787.713521,155.068 787.713521,155.208 C787.685521,155.32 787.671521,155.432 787.671521,155.544 L787.671521,155.544 L787.671521,155.88 C787.755521,157.028 788.063521,158.001 788.595521,158.799 C789.127521,159.597 789.883521,160.234 790.863521,160.71 C791.843521,161.158 792.865521,161.564 793.929521,161.928 C794.993521,162.292 796.113521,162.586 797.289521,162.81 C797.765521,162.95 798.185521,163.104 798.549521,163.272 C798.913521,163.44 799.221521,163.608 799.473521,163.776 C799.697521,163.972 799.886521,164.161 800.040521,164.343 C800.194521,164.525 800.285521,164.714 800.313521,164.91 L800.313521,164.91 L800.313521,164.973 C800.313521,164.987 800.327521,164.994 800.355521,164.994 L800.355521,164.994 L800.355521,165.246 C800.355521,165.498 800.292521,165.736 800.166521,165.96 C800.040521,166.184 799.851521,166.394 799.599521,166.59 C799.347521,166.786 799.081521,166.926 798.801521,167.01 C798.521521,167.094 798.227521,167.136 797.919521,167.136 C797.583521,167.136 797.275521,167.08 796.995521,166.968 C796.715521,166.856 796.463521,166.688 796.239521,166.464 C796.043521,166.24 795.868521,165.995 795.714521,165.729 C795.560521,165.463 795.441521,165.19 795.357521,164.91 C795.329521,164.854 795.308521,164.791 795.294521,164.721 C795.280521,164.651 795.273521,164.588 795.273521,164.532 L795.273521,164.532 L795.273521,164.07 L787.671521,164.07 L787.671521,164.154 C787.671521,165.218 787.818521,166.198 788.112521,167.094 C788.406521,167.99 788.861521,168.802 789.477521,169.53 C790.093521,170.258 791.052521,170.797 792.354521,171.147 C793.656521,171.497 795.301521,171.672 797.289521,171.672 Z M820.672066,171 L820.672066,164.7 L812.734066,164.7 L812.734066,171 L820.672066,171 Z M834.868066,171 L834.868066,164.7 L826.930066,164.7 L826.930066,171 L834.868066,171 Z M848.770066,171 L848.770066,164.7 L840.832066,164.7 L840.832066,171 L848.770066,171 Z"/></g><g id="globalStyle1/people/womansitting--S1/Page Not Found" transform="translate(124 397)"><g id="globalStyle1/peoplechair/womansitting/head/2--S1/Page Not Found" fill-rule="evenodd" transform="translate(53 90)"><path id="[hair]hair--S1/Page Not Found" fill="#2A4862" d="M94.0540717,79.6463918 C87.1176963,124.672304 67.5098558,145.292691 55.2034762,131.518032 C54.8966675,131.174617 43.1261951,108.246693 52.3489613,64.5646643 C57.6947611,39.2452125 62.6664326,28.7346159 79.0682835,28.7346159 C96.0633366,28.7346159 96.0633366,66.6037025 94.0540717,79.6463918 Z"/><path id="shadow--S1/Page Not Found" fill="#000" fill-opacity=".2" d="M94.0540717,79.6463918 C87.1176963,124.672304 67.5098558,145.292691 55.2034762,131.518032 C54.8966675,131.174617 43.1261951,108.246693 52.3489613,64.5646643 C57.6947611,39.2452125 62.6664326,28.7346159 79.0682835,28.7346159 C96.0633366,28.7346159 96.0633366,66.6037025 94.0540717,79.6463918 Z"/><g id="Group--S1/Page Not Found" stroke-width="1" transform="translate(35.216 19.964)"><polygon id="[skin]skin--S1/Page Not Found" fill="#9A6059" points="5.57059381 71.1663914 39.598495 20.4386873 48.9854646 31.9638476 31.3316378 76.6420703" transform="rotate(-12 27.278 48.54)"/><polygon id="shadow--S1/Page Not Found" fill="#000" fill-opacity=".04" points="5.57059381 71.1663914 39.598495 20.4386873 48.9854646 31.9638476 31.3316378 76.6420703" transform="rotate(-12 27.278 48.54)"/><ellipse id="[skin]skin--S1/Page Not Found" cx="45.328" cy="19.336" fill="#9A6059" rx="10.236" ry="17.511" transform="rotate(-12 45.328 19.336)"/><path id="smile--S1/Page Not Found" fill="#FFF" fill-rule="nonzero" d="M50.6623358,30.3469927 C51.3403309,30.3466344 52.7288499,29.8862396 52.7297211,28.2396809 C52.7297211,28.2396809 48.5971791,28.2418639 48.5971791,28.2418639 C48.5963727,29.766537 49.9843407,30.3473507 50.6623358,30.3469927 Z" transform="rotate(4 50.663 29.293)"/></g><path id="[hair]hair--S1/Page Not Found" fill="#2A4862" d="M48.8269456,108.189973 C46.4339456,141.080573 14.6487474,178.25258 7.79465594,117.67372 C4.79837481,91.1915385 21.4614205,75.1463918 36.9734762,53.1463918 C45.7378733,40.7162703 49.2556389,32.463705 53.2496389,25.0608613 C59.5546389,13.3734679 69.0176389,5.8196268 88.1016389,19.4232958 C93.3146389,23.1386253 90.5826389,26.2062557 79.9056389,28.6251935 C79.5616389,30.1907976 76.4096394,30.5341987 74.5508546,36.258276 C74.2253771,36.7641865 69.3434196,50.6731706 59.9107807,64.8336977 C49.0932933,81.0731959 49.0932933,104.525519 48.8269456,108.189973 Z"/></g><g id="globalStyle1/peoplechair/womansitting/bottom/2--S1/Page Not Found" transform="translate(68 247)"><path id="[skin]skin--S1/Page Not Found" fill="#9A6059" fill-rule="evenodd" d="M178,50.4232907 L161.130618,171 C156.615281,170.339113 153,169.821245 153,169.821245 C153,169.821245 157.728477,68.5186781 158.062089,50 C158.062089,50 162.622602,50 178,50.4232907"/><path id="shadow--S1/Page Not Found" fill="#000" fill-opacity=".04" fill-rule="evenodd" d="M178,50.4232907 L161.130618,171 C156.615281,170.339113 153,169.821245 153,169.821245 C153,169.821245 157.728477,68.5186781 158.062089,50 C158.062089,50 162.622602,50 178,50.4232907"/><path id="shape--S1/Page Not Found" fill="#C9C8C8" fill-rule="evenodd" d="M152,160 L152.524999,178 L183,177.979391 C182.910033,176.102792 182.731237,175.03912 179.105213,174.968132 C173.665038,174.860505 161.185776,175.816551 161.182359,170.595509 C161.18122,169.481458 160.923846,172.156097 163.764079,160 L152,160 Z"/><path id="shadow--S1/Page Not Found" fill="#000" fill-opacity=".04" fill-rule="evenodd" d="M152,160 L152.524999,178 L183,177.979391 C182.910033,176.102792 182.731237,175.03912 179.105213,174.968132 C173.665038,174.860505 161.185776,175.816551 161.182359,170.595509 C161.18122,169.481458 160.923846,172.156097 163.764079,160 L152,160 Z"/><path id="[clothes]clothes--S1/Page Not Found" fill="#DCDBDB" fill-rule="evenodd" d="M152,180 L183,180 L183,178.011866 C172.297881,177.996045 172.29904,177.996045 152,178.011866 L152,180 Z"/><path id="[skin]skin--S1/Page Not Found" fill="#9A6059" fill-rule="evenodd" d="M217,168.158568 C213.220618,169.821817 210.593642,171 210.593642,171 C210.593642,171 154.595748,75.4511163 149,56.8829588 C149,56.8829588 153.095773,55.1277541 168.741004,46 L217,168.158568 Z"/><path id="shape--S1/Page Not Found" fill="#C9C8C8" fill-rule="evenodd" d="M202,161 L212.901242,178 L244,177.980497 C243.90935,176.100148 243.726888,175.033203 240.025347,174.96322 C234.473616,174.855379 223.256261,174.576596 219.512881,170.870968 C217.190846,168.574167 216.94214,167.845661 214.928083,161.009178 L202,161 Z"/><path id="[clothes]clothes--S1/Page Not Found" fill="#DCDBDB" fill-rule="evenodd" d="M213,180 L244,180 L244,178.007048 C244,178.007048 233.297881,177.991189 213,178.007048 L213,180 Z"/><mask id="mask-2--S1/Page Not Found" fill="#fff"><use xlink:href="#path-1--S1/Page Not Found"/></mask><use id="[clothes]clothes--S1/Page Not Found" fill="#DCDBDB" fill-rule="evenodd" xlink:href="#path-1--S1/Page Not Found"/><path id="Stroke-19--S1/Page Not Found" fill="#CEE0F4" fill-rule="nonzero" d="M136.655845,112 L178.346448,111.947194 C178.708027,111.946736 179.000632,111.734329 179,111.472768 C178.999366,111.211208 178.705735,110.999543 178.344155,111 L136.653552,111.052806 C136.291973,111.053264 135.999368,111.265671 136,111.527232 C136.000634,111.788792 136.294265,112.000457 136.655845,112 Z" mask="url(#mask-2--S1/Page Not Found)"/><path id="shadow--S1/Page Not Found" fill="#000" fill-opacity=".04" fill-rule="evenodd" d="M165.992373,25.945352 C178.126919,25.9242876 187.978128,35.7597017 187.999964,47.9146047 C188.001661,48.8620258 187.943546,49.7955731 187.829188,50.7116613 L183.178733,125.994253 L134.971374,126 L141.356963,71.2192434 C95.8514268,73.3766057 55.613511,74.428915 52.1256455,74.1880452 C43.5720978,73.5984031 35.452251,67.3238295 31.6935089,56.6815367 C28.5623712,47.8173654 29.7521806,37.5026516 35.4373354,30.230399 C43.8574216,19.4588729 165.485626,25.9183906 165.992373,25.945352 Z"/><mask id="mask-4--S1/Page Not Found" fill="#fff"><use xlink:href="#path-3--S1/Page Not Found"/></mask><use id="[clothes]clothes--S1/Page Not Found" fill="#DCDBDB" fill-rule="evenodd" xlink:href="#path-3--S1/Page Not Found"/><polygon id="Stroke-28--S1/Page Not Found" fill="#CEE0F4" fill-rule="nonzero" points="162.002285 112 216 111.933337 215.997715 111 162 111.066663" mask="url(#mask-4--S1/Page Not Found)"/></g><g id="globalStyle1/peoplechair/womansitting/top/1--S1/Page Not Found" fill-rule="evenodd" stroke-width="1" transform="translate(67 154)"><g id="globalStyle1/people/womansitting/top/1--S1/Page Not Found" transform="translate(12.256 5)"><g id="mac1--S1/Page Not Found" transform="translate(68 112.04)"><polygon id="Fill-18--S1/Page Not Found" fill="#888889" points="1.49213975e-13 16.0177882 0.003 17.8420242 47.439 20.1726534 47.439 18.4856927"/><polygon id="Fill-20--S1/Page Not Found" fill="#C7C7C9" points="47.439 18.4853876 9.9475983e-14 16.0174831 36.464 4.4408921e-14 72.501 1.88016292"/><polygon id="Fill-22--S1/Page Not Found" fill="#B4B4B5" points="48.2334 16.8876051 24.2284 15.7233073 51.0234 1.96832416 70.0344 2.95772303"/><polyline id="Fill-24--S1/Page Not Found" fill="#939396" points="47.4361 18.4853876 47.4391 20.1723483 72.5031 3.34443258 72.5011 1.88016292"/><polygon id="Fill-26--S1/Page Not Found" fill="#B4B4B5" points="29.4444 9.7001764 19.9644 9.22327191 28.5554 5.4314236 37.3794 5.87578876"/></g><path id="[skin]hand--S1/Page Not Found" fill="#9A6059" d="M67.4777624 118.140449L76.1319946 123.274743 85.0072407 123.065116 90.8160423 125.72769C91.2729366 125.952961 91.1549964 126.227249 91.0737267 126.235592 89.3710273 126.405588 88.0191752 126.15633 86.2817875 125.354325 84.4760144 126.120871 82.9150414 125.283406 83.5384395 127.0741 83.6117805 127.284769 86.6722785 128.291187 89.8229661 128.508114 90.2709406 128.540445 92.4374719 128.852278 92.7070495 128.874179 94.2610848 128.996201 94.5068761 128.930497 95.604017 128.826205 95.940989 128.794917 96.3701326 128.91381 96.8944213 129.183926 96.9687534 129.222514 97.0331745 129.275703 97.0787648 129.33515 97.2036426 129.499931 97.1540879 129.676184 96.9697445 129.72833 96.5554672 129.84618 96.099564 129.954644 95.6010438 130.05685 94.8725897 130.204945 92.5831627 130.345739 90.6138591 130.24979 89.2788556 130.185129 87.6237287 130.120468 87.4324476 130.173657 87.1371016 130.257091 89.79026 130.604383 91.8923703 131.068482 93.9954716 131.534667 95.3413771 130.758735 97.2512151 130.509477 97.513855 130.475061 98.0014733 130.563709 98.7130787 130.773336 98.7507403 130.784808 99.0867211 130.978791 98.9786919 131.167559 98.8696715 131.356328 96.6942204 132.156247 95.4365222 132.431578 93.3403585 132.890463 92.8993217 132.792428 91.8884059 132.632862 90.6287255 132.43575 88.3799334 132.177106 87.7634729 132.134346 87.1470125 132.092629 90.5335805 133.106347 93.0687988 133.307631 93.4632541 133.338918 94.273969 133.294073 94.6476114 133.281558 95.7685386 133.240884 97.2214823 132.729853 97.7388334 133.021871 97.8131654 133.06463 97.8815509 133.114691 97.9400254 133.172051 98.2086119 133.432781 98.2056386 133.760258 97.9340789 133.900009 97.2294111 134.266074 96.1729049 134.549748 94.7645605 134.75416 94.432544 134.802135 93.1262822 134.950229 92.6475838 134.892869 90.6257522 134.647782 88.1410797 133.911481 87.9111459 133.987614 87.6802211 134.063747 89.1599243 134.334907 90.9488488 134.778147 91.3561884 134.879311 93.0301461 135.119182 93.3423407 135.189058 93.7546358 135.279792 94.0479996 135.277706 94.7625783 135.360097 96.1897535 135.523835 96.3076937 136.121428 95.5336494 136.379029 94.7586139 136.635587 88.4681407 136.088055 85.7029887 135.476904 84.1895882 135.142126 81.1548586 134.755203 77.4620426 133.353519L63 126.960421 67.4777624 118.140449zM100.148056 102.887647C100.624331 102.886781 101.082067 102.969511 101.508468 103.12257L101.511211 103.114402 108.533907 104.375746C112.994784 105.60574 115.421244 106.787662 117.028523 107.296588 119.963336 108.227705 126.23002 111.123466 126.842651 111.779741 127.455282 112.434971 127.050204 112.922998 125.609368 112.303298 124.886443 111.992926 124.608704 111.831993 124.17154 111.693004 123.839656 111.587457 122.127097 110.905056 121.687928 110.777563 119.76581 110.219521 118.222702 109.669838 118.405188 109.864212 118.587674 110.059632 121.31694 110.722177 123.364391 111.589547 123.84868 111.796462 125.021803 112.639796 125.314583 112.863431 126.557893 113.812313 127.426205 114.646242 127.919518 115.365219 128.109023 115.641105 127.952606 115.944162 127.568584 116.040304 127.486365 116.061205 127.396125 116.07061 127.303879 116.069565 126.668187 116.06016 125.533165 114.802996 124.48337 114.159261 124.133438 113.945031 123.381436 113.465365 122.991398 113.281441 120.4757 112.096384 116.749781 111.200798 117.358401 111.495495 117.968024 111.790192 120.23907 112.766244 121.536524 113.26472 122.577295 113.66601 123.045542 113.813358 124.820267 115.370444 125.885102 116.302605 127.568584 118.219179 127.579613 118.45222 127.58964 118.684215 127.175537 118.68108 127.133425 118.671675 126.352346 118.480435 125.844995 118.298601 125.61037 118.124082 123.911848 116.862738 123.00744 115.418515 120.775498 114.711034 118.542554 114.003552 115.84437 112.889557 116.085011 113.125732 116.241427 113.279351 117.849709 114.11328 119.155185 114.775825 121.08031 115.751878 123.193937 117.119814 123.815592 117.650686 124.241727 118.014354 124.622741 118.362347 124.960641 118.69362 125.111041 118.842013 125.071937 119.030118 124.872406 119.11581 124.800213 119.14716 124.712981 119.160746 124.621738 119.156566 123.991059 119.121035 123.522813 118.998767 123.216998 118.787672 122.22235 118.099001 122.019811 117.903582 120.478708 117.17729 120.210995 117.050842 117.992088 116.167797 117.549911 115.954612 114.43963 114.452913 111.028549 113.725576 110.857092 113.881285 109.386176 115.19697 111.285232 115.268031 112.630815 116.951565 114.679268 117.151165 116.091027 117.652776 117.631127 118.729151 117.704322 118.781402 117.682263 119.098044 117.137814 119.058333L117.137814 119.058333 110.2966 118.375933 103.27992 112.657562 98.5703812 111.316796 98.5993385 111.235218C97.0776363 110.594585 96.0030564 109.041906 96.0000065 107.226594 95.9960023 104.834534 97.852946 102.891834 100.148056 102.887647z"/><path id="Combined-Shape--S1/Page Not Found" fill="#E8E8E8" d="M51.0403008,2.29008038 C57.3476026,1.6178496 64.2502704,5.75307742 63.9724962,13.3116174 C63.3744647,29.5425627 59.9552845,76.5399173 59.433257,79.020438 C59.4051771,79.153835 59.3768422,79.286181 59.3482558,79.4174827 C67.7974502,83.3832431 82.4535393,90.9312201 102,101.900463 L102,101.900463 L97.957787,113.05618 C68.3922771,106.516039 50.0812237,99.7420203 42.5541979,93.2252373 C41.3215726,92.4582283 40.2397083,91.3824946 39.4255027,90.0267929 C37.4474719,86.7332516 37.5899438,82.6858878 39.4689672,79.6140258 C37.9584248,60.6841798 40.4348245,23.1381946 41.1032912,12.7743242 C41.5050709,8.87123586 49.1952592,17.1868363 51.4847337,15.4758151 C52.5325177,14.6927618 52.8833109,9.37861331 52.3460105,5.75212556 C52.0476639,3.73844699 50.3281934,2.36597662 51.0403008,2.29008038 Z"/><path id="shadow--S1/Page Not Found" fill="#000" fill-opacity=".04" d="M51.0403008,2.29008038 C57.3476026,1.6178496 64.2502704,5.75307742 63.9724962,13.3116174 C63.3744647,29.5425627 59.9552845,76.5399173 59.433257,79.020438 C59.4051771,79.153835 59.3768422,79.286181 59.3482558,79.4174827 C67.7974502,83.3832431 82.4535393,90.9312201 102,101.900463 L102,101.900463 L97.957787,113.05618 C68.3922771,106.516039 50.0812237,99.7420203 42.5541979,93.2252373 C41.3215726,92.4582283 40.2397083,91.3824946 39.4255027,90.0267929 C37.4474719,86.7332516 37.5899438,82.6858878 39.4689672,79.6140258 C37.9584248,60.6841798 40.4348245,23.1381946 41.1032912,12.7743242 C41.5050709,8.87123586 49.1952592,17.1868363 51.4847337,15.4758151 C52.5325177,14.6927618 52.8833109,9.37861331 52.3460105,5.75212556 C52.0476639,3.73844699 50.3281934,2.36597662 51.0403008,2.29008038 Z"/><path id="[clothes]bluse--S1/Page Not Found" fill="#B5C7FC" d="M31.3189523,0.185814923 C-5.57744702,1.82298334 0.350589887,31.62094 0.350589887,65.0059704 C0.350589887,74.0082635 -1.28625613,110.355378 2.99286957,115.713595 C18.8133683,135.521897 50.5006159,128.583902 61.1562019,117.894951 C65.2593767,113.77857 64.6752197,113.256388 64.5244047,77.0436364 C64.4389428,56.4189798 68.9261933,43.2239634 66.0184791,33.8419942 C63.920139,27.0729701 59.3324413,2.20545087 50.290681,1.12642439 C50.1299267,1.10724028 47.9505856,6.28651685 47.3729215,6.28651685 C44.5114573,5.93635982 32.5626738,0.131236269 31.3189523,0.185814923 Z"/><path id="shadow--S1/Page Not Found" fill="#000" fill-opacity=".04" d="M101.897899,103.904494 L99,111.702931 L103.640788,112.977665 L110.555038,118.414414 L117.296382,119.063208 C117.832883,119.100963 117.85462,118.799915 117.782494,118.750237 C116.264876,117.726872 114.873727,117.249964 112.855177,117.060195 C111.529237,115.459573 109.657904,115.392011 111.107348,114.141122 C111.276301,113.993082 114.637587,114.684598 117.702463,116.112341 C118.138185,116.315026 120.324701,117.154583 120.588505,117.274803 C122.107111,117.965326 122.306693,118.151121 123.286821,118.805876 C123.588171,119.006575 124.049582,119.122821 124.671055,119.156602 C124.760966,119.160576 124.846924,119.14766 124.918063,119.117853 C125.114681,119.036382 125.153214,118.857541 125.00501,118.716456 C124.672043,118.401498 124.29659,118.070643 123.876677,117.724885 C123.264097,117.220158 121.181325,115.91959 119.284303,114.991607 C117.997885,114.361692 116.413081,113.568832 116.258948,113.422779 C116.02182,113.198235 118.680615,114.257368 120.880963,114.930007 C123.080323,115.602645 123.971528,116.975742 125.645255,118.174967 C125.876454,118.340891 126.376398,118.51377 127.146076,118.695591 C127.187573,118.704533 127.59563,118.707514 127.58575,118.486944 C127.574882,118.265381 125.915975,116.443195 124.866685,115.556942 C123.117868,114.07654 122.656457,113.936449 121.630879,113.554922 C120.352366,113.080995 118.114472,112.153012 117.513749,111.872829 C116.914013,111.592646 120.585541,112.444125 123.064514,113.570819 C123.448859,113.745686 124.189883,114.201729 124.534706,114.405408 C125.569176,115.01744 126.687629,116.21269 127.314041,116.221632 C127.40494,116.222625 127.493863,116.213683 127.574882,116.193812 C127.953298,116.102405 128.107431,115.814273 127.920693,115.551974 C127.434581,114.868406 126.578945,114.075547 125.353785,113.173396 C125.06528,112.960775 123.909282,112.158974 123.432062,111.962249 C121.4145,111.137596 118.725076,110.50768 118.545255,110.321885 C118.365433,110.137083 119.886014,110.659695 121.780072,111.190255 C122.21283,111.311469 123.90039,111.960262 124.227428,112.060611 C124.65821,112.192755 124.931895,112.345762 125.644267,112.640849 C127.064069,113.230029 127.463234,112.766037 126.859546,112.143077 C126.255858,111.519122 120.080657,108.765973 117.188686,107.880713 C115.604871,107.39685 113.213832,106.273136 108.818077,105.103719 L101.897899,103.904494 Z"/><g id="mac2--S1/Page Not Found" transform="translate(114 75.433)"><mask id="mask-6--S1/Page Not Found" fill="#fff"><use xlink:href="#path-5--S1/Page Not Found"/></mask><polygon id="Fill-35--S1/Page Not Found" fill="#9F9FA0" points="0.9688 54.4044309 26.0308 37.7992062 45.0038 0.262043258 19.6588 16.8032062" mask="url(#mask-6--S1/Page Not Found)"/><path id="Fill-38--S1/Page Not Found" fill="#BEBEBF" d="M25.6685,28.9632539 C24.7305,30.9562876 23.6495,32.248709 22.8355,31.8531528 C22.0225,31.4565798 22.1235,29.5204899 23.0615,27.5274562 C24.0005,25.5354393 25.4205,24.2399674 26.2335,24.6365404 C27.0475,25.0331135 26.6065,26.9702202 25.6685,28.9632539" mask="url(#mask-6--S1/Page Not Found)"/></g><path id="Combined-Shape--S1/Page Not Found" fill="#E8E8E8" d="M29.1985812,15.4362657 C32.9065009,26.2769342 36.1525995,69.5506235 36.5459764,84.9847919 C40.0730204,88.21474 45.2606117,90.8110184 71.207361,118.114423 L72,118.949387 L67.1084898,129.325843 C37.9787529,112.601079 24.76174,102.945182 20.1366331,95.7831551 C19.9659292,95.6081112 19.8124275,95.4302955 19.6781449,95.2507905 C13.5582238,87.0715948 3.7882822,27.9350169 6.4493362,15.8222297 C9.11139628,3.7094426 24.828215,2.6558925 29.1985812,15.4362657 Z"/><path id="shadow--S1/Page Not Found" fill="#000" fill-opacity=".04" d="M29.1985812,15.4362657 C32.9065009,26.2769342 36.1525995,69.5506235 36.5459764,84.9847919 C40.0730204,88.21474 45.2606117,90.8110184 71.207361,118.114423 L72,118.949387 L67.1084898,129.325843 C37.9787529,112.601079 24.76174,102.945182 20.1366331,95.7831551 C19.9659292,95.6081112 19.8124275,95.4302955 19.6781449,95.2507905 C13.5582238,87.0715948 3.7882822,27.9350169 6.4493362,15.8222297 C9.11139628,3.7094426 24.828215,2.6558925 29.1985812,15.4362657 Z"/></g></g><g id="globalStyle1/peoplechair/womansitting/chair/2--S1/Page Not Found" fill-rule="evenodd" stroke-width="1" transform="translate(.5 150)"><g id="chair--S1/Page Not Found" fill-rule="nonzero" transform="rotate(-4 920.027 162.622)"><path id="Path-199-Copy--S1/Page Not Found" fill="#545252" d="M194.163835,113.866907 L169.16547,209.203547 C167.800532,214.373315 163.413434,217.954072 158.402067,217.988656 L44.3760114,218.82207 C38.1565072,218.864992 33.0821489,213.494265 33.0421148,206.826216 C33.0358286,205.779192 33.1566026,204.735739 33.4013971,203.722119 L63.2390564,32.9992888 L61.4220354,32.4948919 L31.5843761,203.217722 C31.2987825,204.400279 31.1578795,205.617641 31.1640275,206.839169 C31.2119198,214.618559 37.1320045,220.884407 44.3880927,220.835216 L158.414149,220.000918 C164.260743,219.96057 169.379024,215.78302 170.971452,209.751623 L194.163835,118.935314 L194.163835,113.866907 Z" transform="rotate(4 112.664 126.665)"/><path id="Path-199--S1/Page Not Found" fill="#828282" d="M184.838556,125.21838 L161.449614,208.145158 C159.995185,213.301917 155.320452,216.873664 149.980519,216.90816 L21.2969534,217.739477 C14.6696737,217.782291 9.26262009,212.425079 9.2199612,205.773811 C9.21326285,204.729421 9.34195529,203.688594 9.60279951,202.677525 L44.0932893,15.0585444 L42.1571371,14.5554168 L7.66664733,202.174397 C7.36232907,203.353978 7.21218789,204.568277 7.2197126,205.786731 C7.26977134,213.546544 13.5780005,219.796624 21.3098268,219.746972 L149.993393,218.915358 C156.223314,218.875112 161.677169,214.708075 163.374003,208.691856 L187.407451,123.6166 L184.838556,125.21838 Z" transform="rotate(4 97.313 117.151)"/><path id="[chair]chair--S1/Page Not Found" fill="#CEE0F4" d="M61.2872062,0.984723398 L63.2188102,1.07286342 C70.8035022,1.41895656 77.0983189,7.00150753 78.2860826,14.4352566 L90.0363083,88.034232 C93.8866633,107.932772 116.191431,108.42312 186.57153,112.389504 L186.57153,112.389504 L187.097382,112.37339 C192.149375,112.37339 196.244824,116.738023 196.244824,122.122072 C196.244824,122.240929 196.242845,122.359777 196.238887,122.478559 C196.054147,128.022905 191.687004,132.35788 186.4846,132.160997 C136.977543,139.070525 104.186387,137.450012 88.1111347,127.299457 C87.0258548,126.711756 85.9420589,125.924445 84.860869,124.943326 C83.0740997,123.449597 81.5745399,121.810502 80.3618372,120.025025 C76.5932977,114.476559 74.2139118,109.92312 72.9691468,106.169058 C64.5309181,87.0976351 56.4037304,56.2366227 48.9041002,15.0025025 C47.7260922,8.52584117 52.0677932,2.32887006 58.6015242,1.16118663 L61.2872062,0.984723398 Z"/></g></g></g><g id="globalStyle1/dinoanimals/3--S1/Page Not Found" transform="translate(434 598)"><g id="Group-2--S1/Page Not Found" fill-rule="evenodd" stroke-width="1" transform="translate(0 167)"><g id="Group--S1/Page Not Found"><g id="Group-21-Copy--S1/Page Not Found"><path id="Rectangle--S1/Page Not Found" fill="#E9E9E9" fill-rule="nonzero" d="M114.566358,14.8146815 C114.566358,14.8146815 114.566358,14.8146815 114.566358,14.8146815 C117.471328,21.8870549 117.471328,31.8208705 114.566358,44.6161281 L94.8815549,44.6161281 L94.8815549,18.6999475 C94.8815495,13.0523781 99.4598091,8.47411852 105.107378,8.47411852 C109.254364,8.47411852 112.990726,10.9786848 114.566358,14.8146815 Z"/><path id="Rectangle-Copy-23--S1/Page Not Found" fill="#E9E9E9" fill-rule="nonzero" d="M62.1783177,-7.55521983 L72.1495518,-7.55521983 L72.1495518,-7.55521983 L61.5693075,72.6319368 L63.5170266,81.9430122 C64.5827091,87.0375102 62.8670329,92.3150655 59.0093354,95.8090258 C57.4812206,97.1930566 55.1204601,97.0762535 53.7364293,95.5481387 C53.1157367,94.8628292 52.7714539,93.9715593 52.7702605,93.0469474 L52.6527256,1.98267467 C52.6459356,-3.27816456 56.905184,-7.54842183 62.1660232,-7.55521189 C62.1701214,-7.55521718 62.1742195,-7.55521983 62.1783177,-7.55521983 Z" transform="scale(1 -1) rotate(90 107.011 0)"/><path id="shadow--S1/Page Not Found" fill="#000" fill-opacity=".08" d="M105.37128,8.47411852 C109.419528,8.47411852 113.076473,10.8608395 114.714063,14.5429619 L114.830259,14.8146815 L114.830259,14.8146815 C117.735229,21.8870549 117.735229,31.8208705 114.830259,44.6161281 L114.830251,44.8451146 C114.823461,50.1059539 110.553204,54.3652023 105.292365,54.3584122 L105.292365,54.3584122 L14.2280921,54.2408773 C13.3034802,54.239684 12.4122103,53.8954011 11.7269008,53.2747085 C10.198786,51.8906777 10.0819828,49.5299172 11.4660137,48.0018024 C14.959974,44.1441049 20.2375293,42.4284287 25.3320273,43.4941112 L25.3320273,43.4941112 L34.6431027,45.4418303 L95.145,37.458757 L95.1454566,18.6999475 C95.1454512,13.0523781 99.7237108,8.47411852 105.37128,8.47411852 Z"/><path id="[color:animals]dog--S1/Page Not Found" fill="#545454" fill-rule="nonzero" d="M141,12.9329572 C162.258473,1.85450401 180.938812,-0.804535093 197.041016,4.95583988 C221.194322,13.5964023 230.481723,44.7579805 216.203752,54.1678409 C207.266324,60.0580302 204.677104,55.1649051 208.436093,39.4884658 C208.872491,37.6684821 207.853163,35.8151375 206.08244,35.2090631 L141,12.9329572 L141,12.9329572 Z"/><path id="shadow--S1/Page Not Found" fill="#000" fill-opacity=".08" d="M141,12.9329572 C162.258473,1.85450401 180.938812,-0.804535093 197.041016,4.95583988 C221.194322,13.5964023 230.481723,44.7579805 216.203752,54.1678409 C207.266324,60.0580302 204.677104,55.1649051 208.436093,39.4884658 C208.872491,37.6684821 207.853163,35.8151375 206.08244,35.2090631 L141,12.9329572 L141,12.9329572 Z"/><g id="Group-20--S1/Page Not Found" transform="translate(3.81)"><g id="Group-17--S1/Page Not Found" transform="translate(29.526 3.582)"><path id="[color:animals]dog--S1/Page Not Found" fill="#545454" fill-rule="nonzero" d="M0.239944862,12.836363 L11.5212496,1.78893106 C12.0582118,1.26310064 12.9197755,1.27212472 13.4456059,1.80908691 C13.6350721,2.00256409 13.762505,2.24817001 13.8115994,2.51447922 L17.420856,22.0926364 L17.420856,22.0926364 L0.239944862,12.836363 Z"/><path id="shadow--S1/Page Not Found" fill="#000" fill-opacity=".08" d="M0.239944862,12.836363 L11.5212496,1.78893106 C12.0582118,1.26310064 12.9197755,1.27212472 13.4456059,1.80908691 C13.6350721,2.00256409 13.762505,2.24817001 13.8115994,2.51447922 L17.420856,22.0926364 L17.420856,22.0926364 L0.239944862,12.836363 Z"/></g><g id="Oval--S1/Page Not Found" transform="translate(0 .243)"><path id="[color:animals]dog--S1/Page Not Found" fill="#545454" fill-rule="nonzero" d="M144.799926,7.67989798 C158.264947,3.28165871 154.124754,1.70507812 174.167909,0.462551321 C194.211064,-0.779975483 206.337764,15.4943137 206,25.4321992 C205.662236,35.3700847 202.491368,46.6478412 190.806767,53.6208351 C183.017033,58.2694976 149.293973,58.4648747 89.6375859,54.2069662 C74.6628848,54.2069662 45.5230981,62.3364629 45.5230981,47.395941 L39.3467457,47.395941 L31.8091566,47.395941 L14.7093088,45.536901 C8.89767219,43.6555648 5.162344,40.9795353 3.50332427,37.5088125 L1.09480799,32.4701187 C0.514660137,31.2564307 1.03049675,29.8033128 2.24696131,29.2244891 C2.57504149,29.0683805 2.93393134,28.987367 3.29741191,28.987367 L19.4769137,28.2089552 C19.8565538,23.676401 27.2064278,15.8225252 31.8091566,15.924101 L42.451078,14.3910436 C56.1909332,14.3910436 53.1053162,24.7601645 67.7217409,15.924101 C73.0196065,12.7213837 75.7192533,8.6080484 92.9603149,3.7574732 C114.078666,-2.18393305 131.334906,12.0781372 144.799926,7.67989798 Z"/><path id="shadow--S1/Page Not Found" fill="#000" fill-opacity=".08" d="M144.799926,7.67989798 C158.264947,3.28165871 154.124754,1.70507812 174.167909,0.462551321 C194.211064,-0.779975483 206.337764,15.4943137 206,25.4321992 C205.662236,35.3700847 202.491368,46.6478412 190.806767,53.6208351 C183.017033,58.2694976 149.293973,58.4648747 89.6375859,54.2069662 C74.6628848,54.2069662 45.5230981,62.3364629 45.5230981,47.395941 L39.3467457,47.395941 L31.8091566,47.395941 L14.7093088,45.536901 C8.89767219,43.6555648 5.162344,40.9795353 3.50332427,37.5088125 L1.09480799,32.4701187 C0.514660137,31.2564307 1.03049675,29.8033128 2.24696131,29.2244891 C2.57504149,29.0683805 2.93393134,28.987367 3.29741191,28.987367 L19.4769137,28.2089552 C19.8565538,23.676401 27.2064278,15.8225252 31.8091566,15.924101 L42.451078,14.3910436 C56.1909332,14.3910436 53.1053162,24.7601645 67.7217409,15.924101 C73.0196065,12.7213837 75.7192533,8.6080484 92.9603149,3.7574732 C114.078666,-2.18393305 131.334906,12.0781372 144.799926,7.67989798 Z"/><path id="Path-48--S1/Page Not Found" fill="#E9E9E9" fill-rule="nonzero" d="M31.1302468,30.3426086 C32.0291963,29.1962152 32.6565343,29.1967672 33.6022667,30.3577519 C33.8870605,30.7073658 34.4013495,30.7599129 34.7509634,30.4751192 C35.1005773,30.1903254 35.1531244,29.6760364 34.8683307,29.3264225 C33.266369,27.3598481 31.3953392,27.3582017 29.8452472,29.3349706 C29.5669957,29.6898134 29.6290852,30.2030378 29.983928,30.4812894 C30.3387708,30.759541 30.8519953,30.6974515 31.1302468,30.3426086 Z" transform="rotate(8 32.362 29.255)"/><path fill="#444343" d="M2.15688755,34.6190592 L6.42549128,28.8278188 C2.82925978,28.7293866 0.779047286,29.0700339 0.274853785,29.8497608 C-0.229339717,30.6294878 0.398004873,32.2192539 2.15688755,34.6190592 Z"/></g><path id="[color:animals]dog--S1/Page Not Found" fill="#545454" fill-rule="nonzero" d="M34.9152433,18.2094974 L45.7104504,7.63808578 C46.2474126,7.11225536 47.1089762,7.12127944 47.6348067,7.65824163 C47.8838656,7.91257313 48.0233506,8.25437152 48.0233506,8.61034184 L48.0233506,25.674726 L48.0233506,25.674726 L34.9152433,18.2094974 Z"/><path id="shadow--S1/Page Not Found" fill="#000" fill-opacity=".04" d="M34.9152433,18.2094974 L45.7104504,7.63808578 C46.2474126,7.11225536 47.1089762,7.12127944 47.6348067,7.65824163 C47.8838656,7.91257313 48.0233506,8.25437152 48.0233506,8.61034184 L48.0233506,25.674726 L48.0233506,25.674726 L34.9152433,18.2094974 Z"/><polygon id="shadow--S1/Page Not Found" fill="#000" fill-opacity=".3" points="41.2028539 17.1881806 44.8198878 12.5373134 44.8198878 20.2021057"/></g><g id="Path-47-Copy-2--S1/Page Not Found" transform="translate(0 15.06)"><g id="Path-47--S1/Page Not Found" transform="translate(1.149 .57)"><path id="[color:animals]dog--S1/Page Not Found" fill="#545454" fill-rule="nonzero" d="M104.374875,34.1618521 L104.374867,34.1741465 C104.368077,39.4349858 100.097819,43.6942342 94.8369801,43.6874522 L3.77270735,43.5699093 C2.8480955,43.5687159 1.95682558,43.2244331 1.27151603,42.6037405 C-0.256598756,41.2197096 -0.373401877,38.8589491 1.01062896,37.3308344 C4.50458923,33.4731368 9.78214461,31.7574606 14.8766426,32.8231432 L24.1877179,34.7708622 L84.6900704,26.7879171 L91.6662936,11.0223046 C91.6662936,5.37473518 96.2445532,0.796475602 101.892123,0.796475602 C106.039108,0.796475602 109.77547,3.30104185 111.351102,7.1370386 C114.256072,14.209412 107.279845,21.1499024 104.374875,33.94516 L104.374875,34.1618521 Z"/><mask id="mask-8--S1/Page Not Found" fill="#fff"><use xlink:href="#path-7--S1/Page Not Found"/></mask><use id="shape--S1/Page Not Found" fill="#F5F5F5" fill-rule="nonzero" xlink:href="#path-7--S1/Page Not Found"/></g><path id="Path-50--S1/Page Not Found" fill="#D8D8D8" fill-rule="nonzero" d="M1.07813665,44.3821671 C2.15767425,39.7240626 5.67430115,36.7142144 10.0912326,35.9561415 C14.081349,35.2713225 17.7034419,36.6794404 18.5684207,39.2927192 C18.6628838,39.5781117 18.9708177,39.7328905 19.2562102,39.6384274 C19.5416027,39.5439643 19.6963815,39.2360305 19.6019184,38.950638 C18.5384111,35.7375639 14.3702926,34.1171741 9.90708311,34.8831895 C5.07703863,35.7121645 1.20114858,39.0295027 0.0176048705,44.1363839 C-0.050266292,44.4292417 0.132121386,44.7216702 0.42497915,44.7895414 C0.717836915,44.8574126 1.01026549,44.6750249 1.07813665,44.3821671 Z"/></g><g id="Path-47-Copy--S1/Page Not Found" fill-rule="nonzero" transform="translate(108.065 10.264)"><g id="Path-47--S1/Page Not Found"><path id="[color:animals]dog--S1/Page Not Found" fill="#545454" d="M79.6566543,10.0055432 L94.584157,39.2434221 C94.584157,44.5126196 89.8126745,48.7841482 83.9267527,48.7841482 L7.84122067,48.7841482 C6.78470134,48.7841482 5.74464363,48.5497933 4.8140177,48.1020323 C1.70327964,46.6053329 0.536853117,43.1344949 2.20873115,40.3496986 L3.52750727,38.1530534 C7.45807641,31.6060242 12.5079068,39.3130994 20.8105541,39.3130994 L46.4735889,33.5189864 C39.3900806,24.7840626 40.7288173,11.9606896 49.4637411,4.87718125 C58.1986649,-2.20632713 71.0220379,-0.867590413 78.1055463,7.8673334 C78.4198215,8.25487723 78.7197463,8.6538413 79.0047135,9.0634177 C79.2222341,9.37599224 79.4395379,9.69004087 79.6566543,10.0055432 Z"/><path id="shape--S1/Page Not Found" fill="#F5F5F5" d="M79.6566543,10.3275319 L94.584157,39.5654108 C94.584157,44.8346083 89.8126745,49.1061369 83.9267527,49.1061369 L7.84122067,49.1061369 C6.78470134,49.1061369 5.74464363,48.871782 4.8140177,48.4240209 C1.70327964,46.9273216 0.536853117,43.4564835 2.20873115,40.6716873 L3.52750727,38.4750421 C7.45807641,31.9280128 12.5079068,39.635088 20.8105541,39.635088 L25.9867565,43.7037653 C46.0375222,31.8592746 72.2312805,44.4862264 78.1055463,40.6716873 C79.7445231,39.607394 73.2648451,37.6642453 71.1133284,31.2744543 C68.9992758,24.995928 73.1351289,23.6482719 73.9128458,18.7721702 C75.0179432,11.843471 73.9479582,3.06245375 78.1055463,8.18932207 C78.4198215,8.57686589 78.7197463,8.97582996 79.0047135,9.38540636 C79.2222341,9.69798091 79.4395379,10.0120295 79.6566543,10.3275319 Z"/><path id="Path-50--S1/Page Not Found" fill="#D8D8D8" d="M1.97156159,47.5714626 C3.01420831,43.6517752 6.43492321,41.100966 10.7467997,40.4562041 C14.6469789,39.873004 18.1920984,41.0737554 19.0218661,43.2578911 C19.1286286,43.5389141 19.4429909,43.6801801 19.7240139,43.5734176 C20.0050369,43.4666551 20.146303,43.1522928 20.0395404,42.8712698 C18.9878584,40.1030056 14.9327715,38.7295254 10.5858035,39.3795346 C5.87624008,40.0837633 2.08474332,42.9110626 0.919505836,47.2916131 C0.842227535,47.5821303 1.0150918,47.8802874 1.30560897,47.9575657 C1.59612615,48.034844 1.89428329,47.8619798 1.97156159,47.5714626 Z"/></g></g></g><path id="[color:animals]dog--S1/Page Not Found" fill="#545454" fill-rule="nonzero" d="M210.81042,18.7900391 C198.991489,44.710707 201.307617,31.9268163 201.307617,37.6679688 C201.307617,39.4589671 196.634563,39.7435378 195.908203,41.6933594 C195.148985,43.7313836 189.662845,42.816017 187.605469,44.3076172 C181.97833,48.3872994 181.117579,46.1512504 179.886719,47.0309657 C177.988994,48.3872994 180.739223,49.4111956 179.886719,50.0634766 C174.189817,54.4223777 166.513899,49.6818938 161.904502,50.0634766 C160.587523,50.1725009 157.143796,50.6711981 158.197471,51.46875 C169.968506,60.3785316 192.283813,61.5590784 207.052833,55.9898199 C208.042114,55.6167713 208.042114,57.0596149 209.913664,54.7801133 C211.785214,52.5006116 211.484246,54.0001654 212.220934,53.5760593 C223.189752,47.261384 226.707351,35.9166159 210.81042,20.1894531 L210.81042,18.7900391 Z"/><path id="shadow--S1/Page Not Found" fill="#000" fill-opacity=".08" d="M210.81042,18.7900391 C198.991489,44.710707 201.307617,31.9268163 201.307617,37.6679688 C201.307617,39.4589671 196.634563,39.7435378 195.908203,41.6933594 C195.148985,43.7313836 189.662845,42.816017 187.605469,44.3076172 C181.97833,48.3872994 181.117579,46.1512504 179.886719,47.0309657 C177.988994,48.3872994 180.739223,49.4111956 179.886719,50.0634766 C174.189817,54.4223777 166.513899,49.6818938 161.904502,50.0634766 C160.587523,50.1725009 157.143796,50.6711981 158.197471,51.46875 C169.968506,60.3785316 192.283813,61.5590784 207.052833,55.9898199 C208.042114,55.6167713 208.042114,57.0596149 209.913664,54.7801133 C211.785214,52.5006116 211.484246,54.0001654 212.220934,53.5760593 C223.189752,47.261384 226.707351,35.9166159 210.81042,20.1894531 L210.81042,18.7900391 Z"/></g></g><path id="[color:animals]dog--S1/Page Not Found" fill="#545454" fill-rule="nonzero" d="M210.81042,185.790039 C198.991489,211.710707 201.307617,198.926816 201.307617,204.667969 C201.307617,206.458967 196.634563,206.743538 195.908203,208.693359 C195.148985,210.731384 189.662845,209.816017 187.605469,211.307617 C181.97833,215.387299 181.117579,213.15125 179.886719,214.030966 C177.988994,215.387299 180.739223,216.411196 179.886719,217.063477 C174.189817,221.422378 166.513899,216.681894 161.904502,217.063477 C160.587523,217.172501 157.143796,217.671198 158.197471,218.46875 C169.968506,227.378532 192.283813,228.559078 207.052833,222.98982 C208.042114,222.616771 208.042114,224.059615 209.913664,221.780113 C211.785214,219.500612 211.484246,221.000165 212.220934,220.576059 C223.189752,214.261384 226.707351,202.916616 210.81042,187.189453 L210.81042,185.790039 Z"/><path id="shadow--S1/Page Not Found" fill="#000" fill-opacity=".08" fill-rule="evenodd" d="M210.81042,185.790039 C198.991489,211.710707 201.307617,198.926816 201.307617,204.667969 C201.307617,206.458967 196.634563,206.743538 195.908203,208.693359 C195.148985,210.731384 189.662845,209.816017 187.605469,211.307617 C181.97833,215.387299 181.117579,213.15125 179.886719,214.030966 C177.988994,215.387299 180.739223,216.411196 179.886719,217.063477 C174.189817,221.422378 166.513899,216.681894 161.904502,217.063477 C160.587523,217.172501 157.143796,217.671198 158.197471,218.46875 C169.968506,227.378532 192.283813,228.559078 207.052833,222.98982 C208.042114,222.616771 208.042114,224.059615 209.913664,221.780113 C211.785214,219.500612 211.484246,221.000165 212.220934,220.576059 C223.189752,214.261384 226.707351,202.916616 210.81042,187.189453 L210.81042,185.790039 Z"/></g></g></g></svg>