<svg width="36" height="36" viewBox="0 0 36 36" fill="none" xmlns="http://www.w3.org/2000/svg">
<path d="M16.4969 2.37003C17.4267 1.83174 18.5733 1.83174 19.5031 2.37003L30.7531 8.88319C31.6796 9.41956 32.25 10.4089 32.25 11.4795V24.5201C32.25 25.5907 31.6796 26.5801 30.7531 27.1165L19.5031 33.6296C18.5733 34.168 17.4267 34.168 16.4969 33.6296L5.2469 27.1165C4.32044 26.5801 3.75 25.5907 3.75 24.5201V11.4795C3.75 10.409 4.32044 9.41956 5.2469 8.88319L16.4969 2.37003ZM6.75 11.4795V11.4866L16.5031 17.1332C17.4296 17.6696 18 18.659 18 19.7294V31.0333L29.25 24.5201V11.4795L18 4.96632L6.75 11.4795ZM9.19812 18.4498C9.19809 17.6213 8.61648 16.6139 7.89906 16.1996C7.18164 15.7855 6.60006 16.1212 6.60009 16.9496C6.60012 17.7781 7.18173 18.7855 7.89915 19.1996C8.61658 19.6139 9.19815 19.2782 9.19812 18.4498ZM13.0935 28.1971C13.8109 28.6112 14.3925 28.2755 14.3925 27.4471C14.3924 26.6186 13.8108 25.6112 13.0934 25.1971C12.376 24.7828 11.7944 25.1186 11.7944 25.9471C11.7945 26.7754 12.3761 27.7828 13.0935 28.1971ZM7.89915 25.1983C8.61658 25.6124 9.19815 25.2767 9.19812 24.4483C9.19809 23.6198 8.61648 22.6124 7.89906 22.1983C7.18164 21.784 6.60006 22.1198 6.60009 22.9481C6.60012 23.7766 7.18173 24.784 7.89915 25.1983ZM13.0928 22.199C13.8102 22.6132 14.3917 22.2775 14.3917 21.449C14.3917 20.6206 13.8101 19.6132 13.0927 19.199C12.3752 18.7847 11.7937 19.1204 11.7937 19.9489C11.7937 20.7773 12.3753 21.7847 13.0928 22.199ZM22.3468 11.9998C23.0643 11.5856 23.0643 10.914 22.3468 10.4998C21.6294 10.0857 20.4662 10.0857 19.7487 10.4998C19.0313 10.914 19.0313 11.5856 19.7487 11.9998C20.4662 12.414 21.6294 12.414 22.3468 11.9998ZM15.1471 10.4998C15.8646 10.914 15.8646 11.5856 15.1471 11.9998C14.4297 12.414 13.2665 12.414 12.5491 11.9998C11.8316 11.5856 11.8316 10.914 12.5491 10.4998C13.2665 10.0857 14.4297 10.0857 15.1471 10.4998ZM23.9931 23.024C24.8898 22.5062 25.6168 21.2471 25.6168 20.2115C25.6168 19.1761 24.8899 18.7564 23.9932 19.2742C23.0965 19.792 22.3697 21.0511 22.3695 22.0867C22.3695 23.1221 23.0964 23.5418 23.9931 23.024Z" fill="url(#paint0_linear_552_712)"/>
<defs>
<linearGradient id="paint0_linear_552_712" x1="18" y1="1.96631" x2="18" y2="34.0334" gradientUnits="userSpaceOnUse">
<stop stop-color="#C3D4EB"/>
<stop offset="0.447917" stop-color="#61A0FF"/>
</linearGradient>
</defs>
</svg>
