<svg width="36" height="36" viewBox="0 0 36 36" fill="none" xmlns="http://www.w3.org/2000/svg">
<path d="M4.5 18C4.5 15.1005 6.8505 12.75 9.75 12.75C11.5553 12.75 12.7794 13.4007 13.7987 14.42C14.8882 15.5096 15.7277 16.9983 16.6887 18.7284L16.7393 18.8193C17.6408 20.4424 18.6646 22.286 20.0799 23.7014C21.5919 25.2132 23.5553 26.25 26.25 26.25C30.8064 26.25 34.5 22.5564 34.5 18C34.5 13.4436 30.8064 9.75 26.25 9.75C23.7591 9.75 21.5262 10.8539 20.0135 12.5991C20.6831 13.5811 21.2361 14.5587 21.696 15.3861C22.6021 13.8108 24.3021 12.75 26.25 12.75C29.1495 12.75 31.5 15.1005 31.5 18C31.5 20.8995 29.1495 23.25 26.25 23.25C24.4447 23.25 23.2206 22.5993 22.2014 21.5799C21.1118 20.4904 20.2723 19.0017 19.3113 17.2716L19.2607 17.1807C18.3592 15.5576 17.3354 13.714 15.9201 12.2987C14.4081 10.7868 12.4447 9.75 9.75 9.75C5.19365 9.75 1.5 13.4436 1.5 18C1.5 22.5564 5.19365 26.25 9.75 26.25C12.2408 26.25 14.4738 25.1462 15.9865 23.4009C15.3169 22.4189 14.7639 21.4413 14.3041 20.6139C13.3979 22.1892 11.6978 23.25 9.75 23.25C6.8505 23.25 4.5 20.8995 4.5 18Z" fill="url(#paint0_radial_434_37)"/>
<defs>
<radialGradient id="paint0_radial_434_37" cx="0" cy="0" r="1" gradientUnits="userSpaceOnUse" gradientTransform="translate(27 13.5) rotate(136.736) scale(23.3452 46.6905)">
<stop offset="0.0989583" stop-color="#61A0FF"/>
<stop offset="0.369792" stop-color="#C3D4EB"/>
<stop offset="0.708333" stop-color="#61A0FF"/>
</radialGradient>
</defs>
</svg>
